<svg xmlns="http://www.w3.org/2000/svg" xmlns:xlink="http://www.w3.org/1999/xlink" width="500" zoomAndPan="magnify" viewBox="0 0 375 374.999991" height="500" preserveAspectRatio="xMidYMid meet" version="1.0"><defs><clipPath id="06ae5a41f9"><path d="M 138 268 L 173 268 L 173 313.226562 L 138 313.226562 Z M 138 268 " clip-rule="nonzero"/></clipPath><clipPath id="0ebe707a6e"><path d="M 187 268 L 222 268 L 222 313.226562 L 187 313.226562 Z M 187 268 " clip-rule="nonzero"/></clipPath><clipPath id="1f3257572b"><path d="M 226 61.976562 L 247 61.976562 L 247 77 L 226 77 Z M 226 61.976562 " clip-rule="nonzero"/></clipPath><clipPath id="e40e3b4e7a"><path d="M 197 66 L 290.886719 66 L 290.886719 269 L 197 269 Z M 197 66 " clip-rule="nonzero"/></clipPath></defs><path fill="#efecdf" d="M 166.46875 88.082031 L 194.59375 88.082031 L 194.59375 118.523438 L 166.46875 118.523438 Z M 166.46875 88.082031 " fill-opacity="1" fill-rule="nonzero"/><path fill="#414042" d="M 197.328125 76.757812 L 167.101562 76.757812 L 167.101562 80.589844 L 162.910156 80.589844 L 162.910156 101.390625 L 204.707031 111.242188 Z M 172.746094 96.460938 L 167.828125 96.460938 L 167.828125 91.535156 L 172.746094 91.535156 Z M 192.414062 96.460938 L 187.496094 96.460938 L 187.496094 91.535156 L 192.414062 91.535156 Z M 192.414062 96.460938 " fill-opacity="1" fill-rule="nonzero"/><path fill="#414042" d="M 214.265625 266.699219 L 214.265625 218.53125 L 212.636719 213.449219 L 207.164062 118.523438 L 162.910156 121.09375 L 157.992188 121.09375 L 157.992188 126.019531 L 130.164062 126.019531 L 130.164062 130.398438 L 121.933594 130.398438 L 121.933594 146.136719 L 105.0625 146.136719 L 105.0625 153.117188 L 98.988281 153.117188 L 98.988281 172.960938 L 89.15625 172.960938 L 89.15625 181.992188 L 84.238281 181.992188 L 84.238281 243.765625 L 89.273438 243.765625 L 89.273438 235.820312 L 93.5625 235.820312 L 93.5625 224.554688 L 98.175781 224.554688 L 98.175781 219.214844 L 109.773438 219.214844 L 109.773438 224.699219 L 114.128906 224.699219 L 114.128906 231.019531 L 119.164062 231.019531 L 119.164062 224.699219 L 123.695312 224.699219 L 123.695312 219.132812 L 127.132812 219.132812 L 127.132812 215.109375 L 133.289062 215.109375 L 133.289062 219.121094 L 138.324219 219.121094 L 138.324219 222.644531 L 143.363281 222.644531 L 143.363281 210.910156 L 147.960938 210.910156 L 147.960938 203.984375 L 153.078125 203.984375 L 153.078125 210.910156 L 157.992188 210.910156 L 157.992188 219.625 L 153.078125 219.625 L 153.078125 268.890625 L 148.160156 268.890625 L 148.160156 288.59375 C 148.160156 288.59375 165.40625 301.878906 169.074219 293.964844 C 172.738281 286.050781 167.828125 268.890625 167.828125 268.890625 L 172.746094 268.890625 L 177.660156 219.625 L 192.414062 219.625 L 192.414062 268.890625 L 197.328125 268.890625 L 197.328125 288.59375 C 197.328125 288.59375 218.308594 304.703125 220.113281 295.375 C 221.914062 286.054688 217 268.890625 217 268.890625 Z M 214.265625 266.699219 " fill-opacity="1" fill-rule="nonzero"/><path fill="#414042" d="M 226.832031 76.757812 L 226.832031 86.609375 L 221.914062 86.609375 L 221.914062 116.167969 L 217 116.167969 L 217 127.066406 L 209.820312 127.066406 L 211.828125 157.050781 L 222.523438 153.941406 L 225.472656 153.128906 L 229.699219 148.359375 L 230.546875 123.042969 L 231.75 116.167969 L 234.207031 91.535156 L 236.667969 86.609375 L 239.125 73.320312 Z M 226.832031 76.757812 " fill-opacity="1" fill-rule="nonzero"/><path fill="#000000" d="M 172.746094 219.625 L 177.660156 219.625 L 177.660156 268.890625 L 172.746094 268.890625 Z M 172.746094 219.625 " fill-opacity="1" fill-rule="nonzero"/><g clip-path="url(#06ae5a41f9)"><path fill="#000000" d="M 167.828125 288.59375 L 148.160156 288.59375 L 148.160156 298.449219 L 143.242188 298.449219 L 143.242188 303.375 L 138.324219 303.375 L 138.324219 313.226562 L 172.746094 313.226562 L 172.746094 268.890625 L 167.828125 268.890625 Z M 167.828125 288.59375 " fill-opacity="1" fill-rule="nonzero"/></g><path fill="#000000" d="M 148.160156 126.019531 L 157.992188 126.019531 L 157.992188 186.78125 L 148.160156 186.78125 Z M 148.160156 126.019531 " fill-opacity="1" fill-rule="nonzero"/><path fill="#000000" d="M 192.476562 153.117188 L 187.496094 153.117188 L 187.496094 148.890625 L 172.808594 148.890625 L 172.808594 153.117188 L 167.828125 153.117188 L 167.828125 190.066406 L 192.476562 190.066406 Z M 192.476562 153.117188 " fill-opacity="1" fill-rule="nonzero"/><path fill="#000000" d="M 236.667969 76.757812 L 241.582031 76.757812 L 241.582031 86.609375 L 236.667969 86.609375 Z M 236.667969 76.757812 " fill-opacity="1" fill-rule="nonzero"/><path fill="#000000" d="M 231.75 86.609375 L 236.667969 86.609375 L 236.667969 116.167969 L 231.75 116.167969 Z M 231.75 86.609375 " fill-opacity="1" fill-rule="nonzero"/><g clip-path="url(#0ebe707a6e)"><path fill="#000000" d="M 197.328125 288.59375 L 197.328125 298.449219 L 192.414062 298.449219 L 192.414062 303.375 L 187.496094 303.375 L 187.496094 313.226562 L 221.914062 313.226562 L 221.914062 268.890625 L 217 268.890625 L 217 288.59375 Z M 197.328125 288.59375 " fill-opacity="1" fill-rule="nonzero"/></g><path fill="#000000" d="M 183.933594 76.757812 L 183.933594 73.320312 L 189.402344 73.320312 L 189.402344 70.035156 L 192.679688 70.035156 L 192.679688 66.75 L 178.214844 66.75 L 178.214844 70.1875 L 172.746094 70.1875 L 172.746094 76.757812 Z M 183.933594 76.757812 " fill-opacity="1" fill-rule="nonzero"/><path fill="#edbf8e" d="M 148.160156 186.78125 L 157.992188 186.78125 L 157.992188 197.179688 L 148.160156 197.179688 Z M 148.160156 186.78125 " fill-opacity="1" fill-rule="nonzero"/><g clip-path="url(#1f3257572b)"><path fill="#edbf8e" d="M 241.582031 61.976562 L 241.582031 66.902344 L 236.667969 66.902344 L 236.667969 61.976562 L 231.75 61.976562 L 231.75 71.828125 L 226.832031 71.828125 L 226.832031 76.757812 L 246.5 76.757812 L 246.5 61.976562 Z M 241.582031 61.976562 " fill-opacity="1" fill-rule="nonzero"/></g><path fill="#edbf8e" d="M 182.136719 104.339844 L 178.167969 104.339844 L 178.167969 101.390625 L 162.910156 101.390625 L 162.910156 121.09375 L 167.828125 121.09375 L 167.828125 126.019531 L 192.414062 126.019531 L 192.414062 121.09375 L 197.328125 121.09375 L 197.328125 101.390625 L 182.136719 101.390625 Z M 187.496094 116.167969 L 172.746094 116.167969 L 172.746094 111.242188 L 187.496094 111.242188 Z M 187.496094 116.167969 " fill-opacity="1" fill-rule="nonzero"/><path fill="#95a9c6" d="M 217 190.066406 L 217 194.992188 L 212.082031 194.992188 L 212.082031 199.917969 L 207.164062 199.917969 L 207.164062 194.992188 L 202.246094 194.992188 L 202.246094 199.917969 L 197.328125 199.917969 L 197.328125 194.992188 L 192.414062 194.992188 L 192.414062 199.917969 L 187.496094 199.917969 L 187.496094 194.992188 L 182.578125 194.992188 L 182.578125 199.917969 L 177.660156 199.917969 L 177.660156 194.992188 L 172.746094 194.992188 L 172.746094 199.917969 L 167.828125 199.917969 L 167.828125 194.992188 L 162.910156 194.992188 L 162.910156 199.917969 L 157.992188 199.917969 L 157.992188 185.140625 L 162.910156 185.140625 L 162.910156 190.066406 L 167.828125 190.066406 L 167.828125 185.140625 L 172.746094 185.140625 L 172.746094 190.066406 L 177.660156 190.066406 L 177.660156 185.140625 L 182.578125 185.140625 L 182.578125 190.066406 L 187.496094 190.066406 L 187.496094 185.140625 L 192.414062 185.140625 L 192.414062 190.066406 L 197.328125 190.066406 L 197.328125 185.140625 L 202.246094 185.140625 L 202.246094 190.066406 L 207.164062 190.066406 L 207.164062 185.140625 L 212.082031 185.140625 L 212.082031 190.066406 Z M 217 190.066406 " fill-opacity="1" fill-rule="nonzero"/><g clip-path="url(#e40e3b4e7a)"><path fill="#000000" d="M 285.601562 181.929688 L 285.601562 172.898438 L 275.769531 172.898438 L 275.769531 153.054688 L 269.691406 153.054688 L 269.691406 146.078125 L 252.820312 146.078125 L 252.820312 130.339844 L 244.597656 130.339844 L 244.597656 125.960938 L 231.75 125.960938 L 231.75 116.167969 L 226.882812 116.167969 L 226.832031 145.726562 L 220.511719 145.726562 L 220.511719 151.292969 L 212.082031 151.292969 L 212.082031 76.757812 L 218.214844 76.757812 L 218.214844 73.320312 L 223.683594 73.320312 L 223.683594 70.035156 L 226.964844 70.035156 L 226.964844 66.75 L 212.5 66.75 L 212.5 70.1875 L 207.03125 70.1875 L 207.03125 76.757812 L 197.328125 76.757812 L 197.328125 121.09375 L 202.246094 121.09375 L 202.246094 219.625 L 212.082031 219.625 L 212.082031 268.890625 L 217 268.890625 L 217 210.847656 L 221.679688 210.847656 L 221.679688 203.925781 L 226.800781 203.925781 L 226.800781 210.847656 L 231.394531 210.847656 L 231.394531 222.585938 L 236.429688 222.585938 L 236.429688 219.058594 L 241.46875 219.058594 L 241.46875 215.046875 L 247.625 215.046875 L 247.625 219.078125 L 251.0625 219.078125 L 251.0625 224.636719 L 255.597656 224.636719 L 255.597656 230.960938 L 260.628906 230.960938 L 260.628906 224.636719 L 264.984375 224.636719 L 264.984375 219.152344 L 276.582031 219.152344 L 276.582031 224.496094 L 281.199219 224.496094 L 281.199219 235.765625 L 285.480469 235.765625 L 285.480469 243.703125 L 290.519531 243.703125 L 290.519531 181.929688 Z M 285.601562 181.929688 " fill-opacity="1" fill-rule="nonzero"/></g></svg>